<?xml version="1.0" standalone="no"?>
<!DOCTYPE svg PUBLIC "-//W3C//DTD SVG 20010904//EN"
 "http://www.w3.org/TR/2001/REC-SVG-20010904/DTD/svg10.dtd">
<svg version="1.0" xmlns="http://www.w3.org/2000/svg"
 width="950.000000pt" height="950.000000pt" viewBox="0 0 950.000000 950.000000"
 preserveAspectRatio="xMidYMid meet">
<metadata>
Created by potrace 1.11, written by Peter Selinger 2001-2013
</metadata>
<g transform="translate(0.000000,950.000000) scale(0.100000,-0.100000)"
fill="#000000" stroke="none">
<path d="M4357 8994 c-844 -87 -1651 -430 -2307 -978 -123 -102 -357 -333
-474 -466 -232 -263 -433 -561 -597 -885 -249 -492 -390 -970 -444 -1505 -20
-194 -20 -676 0 -870 87 -854 426 -1659 979 -2320 99 -119 341 -365 466 -474
671 -588 1504 -951 2390 -1041 194 -20 676 -20 870 0 1348 137 2549 903 3253
2076 319 531 519 1135 582 1759 20 194 20 676 0 870 -98 967 -514 1855 -1195
2554 -348 356 -701 617 -1135 837 -492 249 -970 390 -1505 444 -183 18 -702
18 -883 -1z"/>
</g>
</svg>
